<svg xmlns="http://www.w3.org/2000/svg" xmlns:xlink="http://www.w3.org/1999/xlink" version="1.1" width="274.164pt" height="79.377pt" viewBox="0 0 274.164 79.377">
<path transform="matrix(1,0,0,-1,29.559,68.034999)" stroke-width=".3985" stroke-linecap="butt" stroke-miterlimit="10" stroke-linejoin="miter" fill="none" stroke="#000000" d="M0 0 28.3468 56.69362"/>
<path transform="matrix(1,0,0,-1,29.559,68.034999)" stroke-width=".3985" stroke-linecap="butt" stroke-miterlimit="10" stroke-linejoin="miter" fill="none" stroke="#000000" d="M0 56.69362 28.3468 0"/>
<path transform="matrix(1,0,0,-1,29.559,68.034999)" stroke-width=".3985" stroke-linecap="butt" stroke-miterlimit="10" stroke-linejoin="miter" fill="none" stroke="#000000" d="M28.3468 0 56.69362 56.69362"/>
<path transform="matrix(1,0,0,-1,29.559,68.034999)" stroke-width=".3985" stroke-linecap="butt" stroke-miterlimit="10" stroke-linejoin="miter" fill="none" stroke="#000000" d="M28.3468 56.69362 56.69362 0"/>
<path transform="matrix(1,0,0,-1,29.559,68.034999)" stroke-width=".3985" stroke-linecap="butt" stroke-miterlimit="10" stroke-linejoin="miter" fill="none" stroke="#000000" d="M56.69362 0 85.04042 56.69362"/>
<path transform="matrix(1,0,0,-1,29.559,68.034999)" stroke-width=".3985" stroke-linecap="butt" stroke-miterlimit="10" stroke-linejoin="miter" fill="none" stroke="#000000" d="M56.69362 56.69362 85.04042 0"/>
<path transform="matrix(1,0,0,-1,29.559,68.034999)" stroke-width=".3985" stroke-linecap="butt" stroke-miterlimit="10" stroke-linejoin="miter" fill="none" stroke="#000000" d="M85.04042 0 113.38724 56.69362"/>
<path transform="matrix(1,0,0,-1,29.559,68.034999)" stroke-width=".3985" stroke-linecap="butt" stroke-miterlimit="10" stroke-linejoin="miter" fill="none" stroke="#000000" d="M85.04042 56.69362 113.38724 0"/>
<path transform="matrix(1,0,0,-1,29.559,68.034999)" stroke-width=".3985" stroke-linecap="butt" stroke-miterlimit="10" stroke-linejoin="miter" fill="none" stroke="#000000" d="M0 0-14.17339 28.3468"/>
<path transform="matrix(1,0,0,-1,29.559,68.034999)" stroke-width=".3985" stroke-linecap="butt" stroke-miterlimit="10" stroke-linejoin="miter" fill="none" stroke="#000000" d="M0 56.69362 127.56062 28.3468"/>
<path transform="matrix(1,0,0,-1,29.559,68.034999)" stroke-width=".3985" stroke-linecap="butt" stroke-miterlimit="10" stroke-linejoin="miter" fill="none" stroke="#000000" d="M28.3468 0-14.17339 28.3468"/>
<path transform="matrix(1,0,0,-1,29.559,68.034999)" stroke-width=".3985" stroke-linecap="butt" stroke-miterlimit="10" stroke-linejoin="miter" fill="none" stroke="#000000" d="M28.3468 56.69362 127.56062 28.3468"/>
<path transform="matrix(1,0,0,-1,29.559,68.034999)" stroke-width=".3985" stroke-linecap="butt" stroke-miterlimit="10" stroke-linejoin="miter" fill="none" stroke="#000000" d="M56.69362 0-14.17339 28.3468"/>
<path transform="matrix(1,0,0,-1,29.559,68.034999)" stroke-width=".3985" stroke-linecap="butt" stroke-miterlimit="10" stroke-linejoin="miter" fill="none" stroke="#000000" d="M56.69362 56.69362 127.56062 28.3468"/>
<path transform="matrix(1,0,0,-1,29.559,68.034999)" stroke-width=".3985" stroke-linecap="butt" stroke-miterlimit="10" stroke-linejoin="miter" fill="none" stroke="#000000" d="M85.04042 0-14.17339 28.3468"/>
<path transform="matrix(1,0,0,-1,29.559,68.034999)" stroke-width=".3985" stroke-linecap="butt" stroke-miterlimit="10" stroke-linejoin="miter" fill="none" stroke="#000000" d="M85.04042 56.69362 127.56062 28.3468"/>
<path transform="matrix(1,0,0,-1,29.559,68.034999)" stroke-width=".3985" stroke-linecap="butt" stroke-miterlimit="10" stroke-linejoin="miter" fill="none" stroke="#000000" d="M113.38724 0-14.17339 28.3468"/>
<path transform="matrix(1,0,0,-1,29.559,68.034999)" stroke-width=".3985" stroke-linecap="butt" stroke-miterlimit="10" stroke-linejoin="miter" fill="none" stroke="#000000" d="M113.38724 56.69362 127.56062 28.3468"/>
<path transform="matrix(1,0,0,-1,29.559,68.034999)" stroke-width=".3985" stroke-linecap="butt" stroke-miterlimit="10" stroke-linejoin="miter" fill="none" stroke="#000000" d="M0 0 113.38724 56.69362"/>
<path transform="matrix(1,0,0,-1,29.559,68.034999)" stroke-width=".3985" stroke-linecap="butt" stroke-miterlimit="10" stroke-linejoin="miter" fill="none" stroke="#000000" d="M0 56.69362 113.38724 0"/>
<path transform="matrix(1,0,0,-1,29.559,68.034999)" d="M1.99255 0C1.99255 1.10046 1.10046 1.99255 0 1.99255-1.10046 1.99255-1.99255 1.10046-1.99255 0-1.99255-1.10046-1.10046-1.99255 0-1.99255 1.10046-1.99255 1.99255-1.10046 1.99255 0ZM0 0" fill="#0000ff"/>
<path transform="matrix(1,0,0,-1,29.559,68.034999)" stroke-width=".3985" stroke-linecap="butt" stroke-miterlimit="10" stroke-linejoin="miter" fill="none" stroke="#0000ff" d="M1.99255 0C1.99255 1.10046 1.10046 1.99255 0 1.99255-1.10046 1.99255-1.99255 1.10046-1.99255 0-1.99255-1.10046-1.10046-1.99255 0-1.99255 1.10046-1.99255 1.99255-1.10046 1.99255 0ZM0 0"/>
<text fill="#0000ff" xml:space="preserve" transform="matrix(1 0 -0 1 0 79.377)" font-size="4.9813" font-family="CMR5"><tspan y="-4.815" x="25.92">1</tspan><tspan y="-3.321" x="29.31">0</tspan></text>
<path transform="matrix(1,0,0,-1,29.559,68.034999)" d="M30.33936 0C30.33936 1.10046 29.44728 1.99255 28.3468 1.99255 27.24634 1.99255 26.35425 1.10046 26.35425 0 26.35425-1.10046 27.24634-1.99255 28.3468-1.99255 29.44728-1.99255 30.33936-1.10046 30.33936 0ZM28.3468 0" fill="#ff0000"/>
<path transform="matrix(1,0,0,-1,29.559,68.034999)" stroke-width=".3985" stroke-linecap="butt" stroke-miterlimit="10" stroke-linejoin="miter" fill="none" stroke="#ff0000" d="M30.33936 0C30.33936 1.10046 29.44728 1.99255 28.3468 1.99255 27.24634 1.99255 26.35425 1.10046 26.35425 0 26.35425-1.10046 27.24634-1.99255 28.3468-1.99255 29.44728-1.99255 30.33936-1.10046 30.33936 0ZM28.3468 0"/>
<text fill="#ff0000" xml:space="preserve" transform="matrix(1 0 -0 1 0 79.377)" font-size="4.9813" font-family="CMR5"><tspan y="-4.815" x="54.267">2</tspan><tspan y="-3.321" x="57.656999">0</tspan></text>
<path transform="matrix(1,0,0,-1,29.559,68.034999)" d="M58.68617 0C58.68617 1.10046 57.79408 1.99255 56.69362 1.99255 55.59314 1.99255 54.70107 1.10046 54.70107 0 54.70107-1.10046 55.59314-1.99255 56.69362-1.99255 57.79408-1.99255 58.68617-1.10046 58.68617 0ZM56.69362 0" fill="#008080"/>
<path transform="matrix(1,0,0,-1,29.559,68.034999)" stroke-width=".3985" stroke-linecap="butt" stroke-miterlimit="10" stroke-linejoin="miter" fill="none" stroke="#008080" d="M58.68617 0C58.68617 1.10046 57.79408 1.99255 56.69362 1.99255 55.59314 1.99255 54.70107 1.10046 54.70107 0 54.70107-1.10046 55.59314-1.99255 56.69362-1.99255 57.79408-1.99255 58.68617-1.10046 58.68617 0ZM56.69362 0"/>
<text fill="#008080" xml:space="preserve" transform="matrix(1 0 -0 1 0 79.377)" font-size="4.9813" font-family="CMR5"><tspan y="-4.815" x="82.613">3</tspan><tspan y="-3.321" x="86.003">0</tspan></text>
<path transform="matrix(1,0,0,-1,29.559,68.034999)" d="M87.03297 0C87.03297 1.10046 86.1409 1.99255 85.04042 1.99255 83.93996 1.99255 83.04787 1.10046 83.04787 0 83.04787-1.10046 83.93996-1.99255 85.04042-1.99255 86.1409-1.99255 87.03297-1.10046 87.03297 0ZM85.04042 0" fill="#ff8000"/>
<path transform="matrix(1,0,0,-1,29.559,68.034999)" stroke-width=".3985" stroke-linecap="butt" stroke-miterlimit="10" stroke-linejoin="miter" fill="none" stroke="#ff8000" d="M87.03297 0C87.03297 1.10046 86.1409 1.99255 85.04042 1.99255 83.93996 1.99255 83.04787 1.10046 83.04787 0 83.04787-1.10046 83.93996-1.99255 85.04042-1.99255 86.1409-1.99255 87.03297-1.10046 87.03297 0ZM85.04042 0"/>
<text fill="#ff8000" xml:space="preserve" transform="matrix(1 0 -0 1 0 79.377)" font-size="4.9813" font-family="CMR5"><tspan y="-4.815" x="110.959">4</tspan><tspan y="-3.321" x="114.35">0</tspan></text>
<path transform="matrix(1,0,0,-1,29.559,68.034999)" d="M115.37979 0C115.37979 1.10046 114.4877 1.99255 113.38724 1.99255 112.28676 1.99255 111.39468 1.10046 111.39468 0 111.39468-1.10046 112.28676-1.99255 113.38724-1.99255 114.4877-1.99255 115.37979-1.10046 115.37979 0ZM113.38724 0" fill="#800080"/>
<path transform="matrix(1,0,0,-1,29.559,68.034999)" stroke-width=".3985" stroke-linecap="butt" stroke-miterlimit="10" stroke-linejoin="miter" fill="none" stroke="#800080" d="M115.37979 0C115.37979 1.10046 114.4877 1.99255 113.38724 1.99255 112.28676 1.99255 111.39468 1.10046 111.39468 0 111.39468-1.10046 112.28676-1.99255 113.38724-1.99255 114.4877-1.99255 115.37979-1.10046 115.37979 0ZM113.38724 0"/>
<text fill="#800080" xml:space="preserve" transform="matrix(1 0 -0 1 0 79.377)" font-size="4.9813" font-family="CMR5"><tspan y="-4.815" x="139.306">5</tspan><tspan y="-3.321" x="142.696">0</tspan></text>
<path transform="matrix(1,0,0,-1,29.559,68.034999)" d="M1.99255 56.69362C1.99255 57.79408 1.10046 58.68617 0 58.68617-1.10046 58.68617-1.99255 57.79408-1.99255 56.69362-1.99255 55.59314-1.10046 54.70107 0 54.70107 1.10046 54.70107 1.99255 55.59314 1.99255 56.69362ZM0 56.69362" fill="#0000ff"/>
<path transform="matrix(1,0,0,-1,29.559,68.034999)" stroke-width=".3985" stroke-linecap="butt" stroke-miterlimit="10" stroke-linejoin="miter" fill="none" stroke="#0000ff" d="M1.99255 56.69362C1.99255 57.79408 1.10046 58.68617 0 58.68617-1.10046 58.68617-1.99255 57.79408-1.99255 56.69362-1.99255 55.59314-1.10046 54.70107 0 54.70107 1.10046 54.70107 1.99255 55.59314 1.99255 56.69362ZM0 56.69362"/>
<text fill="#0000ff" xml:space="preserve" transform="matrix(1 0 -0 1 0 79.377)" font-size="4.9813" font-family="CMR5"><tspan y="-72.846" x="25.92">1</tspan><tspan y="-71.352" x="29.31">1</tspan></text>
<path transform="matrix(1,0,0,-1,29.559,68.034999)" d="M30.33936 56.69362C30.33936 57.79408 29.44728 58.68617 28.3468 58.68617 27.24634 58.68617 26.35425 57.79408 26.35425 56.69362 26.35425 55.59314 27.24634 54.70107 28.3468 54.70107 29.44728 54.70107 30.33936 55.59314 30.33936 56.69362ZM28.3468 56.69362" fill="#ff0000"/>
<path transform="matrix(1,0,0,-1,29.559,68.034999)" stroke-width=".3985" stroke-linecap="butt" stroke-miterlimit="10" stroke-linejoin="miter" fill="none" stroke="#ff0000" d="M30.33936 56.69362C30.33936 57.79408 29.44728 58.68617 28.3468 58.68617 27.24634 58.68617 26.35425 57.79408 26.35425 56.69362 26.35425 55.59314 27.24634 54.70107 28.3468 54.70107 29.44728 54.70107 30.33936 55.59314 30.33936 56.69362ZM28.3468 56.69362"/>
<text fill="#ff0000" xml:space="preserve" transform="matrix(1 0 -0 1 0 79.377)" font-size="4.9813" font-family="CMR5"><tspan y="-72.846" x="54.267">2</tspan><tspan y="-71.352" x="57.656999">1</tspan></text>
<path transform="matrix(1,0,0,-1,29.559,68.034999)" d="M58.68617 56.69362C58.68617 57.79408 57.79408 58.68617 56.69362 58.68617 55.59314 58.68617 54.70107 57.79408 54.70107 56.69362 54.70107 55.59314 55.59314 54.70107 56.69362 54.70107 57.79408 54.70107 58.68617 55.59314 58.68617 56.69362ZM56.69362 56.69362" fill="#008080"/>
<path transform="matrix(1,0,0,-1,29.559,68.034999)" stroke-width=".3985" stroke-linecap="butt" stroke-miterlimit="10" stroke-linejoin="miter" fill="none" stroke="#008080" d="M58.68617 56.69362C58.68617 57.79408 57.79408 58.68617 56.69362 58.68617 55.59314 58.68617 54.70107 57.79408 54.70107 56.69362 54.70107 55.59314 55.59314 54.70107 56.69362 54.70107 57.79408 54.70107 58.68617 55.59314 58.68617 56.69362ZM56.69362 56.69362"/>
<text fill="#008080" xml:space="preserve" transform="matrix(1 0 -0 1 0 79.377)" font-size="4.9813" font-family="CMR5"><tspan y="-72.846" x="82.613">3</tspan><tspan y="-71.352" x="86.003">1</tspan></text>
<path transform="matrix(1,0,0,-1,29.559,68.034999)" d="M87.03297 56.69362C87.03297 57.79408 86.1409 58.68617 85.04042 58.68617 83.93996 58.68617 83.04787 57.79408 83.04787 56.69362 83.04787 55.59314 83.93996 54.70107 85.04042 54.70107 86.1409 54.70107 87.03297 55.59314 87.03297 56.69362ZM85.04042 56.69362" fill="#ff8000"/>
<path transform="matrix(1,0,0,-1,29.559,68.034999)" stroke-width=".3985" stroke-linecap="butt" stroke-miterlimit="10" stroke-linejoin="miter" fill="none" stroke="#ff8000" d="M87.03297 56.69362C87.03297 57.79408 86.1409 58.68617 85.04042 58.68617 83.93996 58.68617 83.04787 57.79408 83.04787 56.69362 83.04787 55.59314 83.93996 54.70107 85.04042 54.70107 86.1409 54.70107 87.03297 55.59314 87.03297 56.69362ZM85.04042 56.69362"/>
<text fill="#ff8000" xml:space="preserve" transform="matrix(1 0 -0 1 0 79.377)" font-size="4.9813" font-family="CMR5"><tspan y="-72.846" x="110.959">4</tspan><tspan y="-71.352" x="114.35">1</tspan></text>
<path transform="matrix(1,0,0,-1,29.559,68.034999)" d="M115.37979 56.69362C115.37979 57.79408 114.4877 58.68617 113.38724 58.68617 112.28676 58.68617 111.39468 57.79408 111.39468 56.69362 111.39468 55.59314 112.28676 54.70107 113.38724 54.70107 114.4877 54.70107 115.37979 55.59314 115.37979 56.69362ZM113.38724 56.69362" fill="#800080"/>
<path transform="matrix(1,0,0,-1,29.559,68.034999)" stroke-width=".3985" stroke-linecap="butt" stroke-miterlimit="10" stroke-linejoin="miter" fill="none" stroke="#800080" d="M115.37979 56.69362C115.37979 57.79408 114.4877 58.68617 113.38724 58.68617 112.28676 58.68617 111.39468 57.79408 111.39468 56.69362 111.39468 55.59314 112.28676 54.70107 113.38724 54.70107 114.4877 54.70107 115.37979 55.59314 115.37979 56.69362ZM113.38724 56.69362"/>
<text fill="#800080" xml:space="preserve" transform="matrix(1 0 -0 1 0 79.377)" font-size="4.9813" font-family="CMR5"><tspan y="-72.846" x="139.306">5</tspan><tspan y="-71.352" x="142.696">1</tspan></text>
<path transform="matrix(1,0,0,-1,29.559,68.034999)" d="M129.55318 28.3468C129.55318 29.44728 128.6611 30.33936 127.56062 30.33936 126.46016 30.33936 125.56807 29.44728 125.56807 28.3468 125.56807 27.24634 126.46016 26.35425 127.56062 26.35425 128.6611 26.35425 129.55318 27.24634 129.55318 28.3468ZM127.56062 28.3468"/>
<path transform="matrix(1,0,0,-1,29.559,68.034999)" stroke-width=".3985" stroke-linecap="butt" stroke-miterlimit="10" stroke-linejoin="miter" fill="none" stroke="#000000" d="M129.55318 28.3468C129.55318 29.44728 128.6611 30.33936 127.56062 30.33936 126.46016 30.33936 125.56807 29.44728 125.56807 28.3468 125.56807 27.24634 126.46016 26.35425 127.56062 26.35425 128.6611 26.35425 129.55318 27.24634 129.55318 28.3468ZM127.56062 28.3468"/>
<text xml:space="preserve" transform="matrix(1 0 -0 1 0 79.377)" font-size="4.9813" font-family="CMMI5" font-style="italic"><tspan y="-39.363" x="162.061">c</tspan></text>
<text xml:space="preserve" transform="matrix(1 0 -0 1 0 79.377)" font-size="4.9813" font-family="CMR5"><tspan y="-37.869" x="165.296">0</tspan></text>
<path transform="matrix(1,0,0,-1,29.559,68.034999)" d="M-12.18083 28.3468C-12.18083 29.44728-13.07292 30.33936-14.17339 30.33936-15.27386 30.33936-16.16594 29.44728-16.16594 28.3468-16.16594 27.24634-15.27386 26.35425-14.17339 26.35425-13.07292 26.35425-12.18083 27.24634-12.18083 28.3468ZM-14.17339 28.3468"/>
<path transform="matrix(1,0,0,-1,29.559,68.034999)" stroke-width=".3985" stroke-linecap="butt" stroke-miterlimit="10" stroke-linejoin="miter" fill="none" stroke="#000000" d="M-12.18083 28.3468C-12.18083 29.44728-13.07292 30.33936-14.17339 30.33936-15.27386 30.33936-16.16594 29.44728-16.16594 28.3468-16.16594 27.24634-15.27386 26.35425-14.17339 26.35425-13.07292 26.35425-12.18083 27.24634-12.18083 28.3468ZM-14.17339 28.3468"/>
<text xml:space="preserve" transform="matrix(1 0 -0 1 -.00000023841859 79.377)" font-size="4.9813" font-family="CMMI5" font-style="italic"><tspan y="-39.363" x="3.32">c</tspan></text>
<text xml:space="preserve" transform="matrix(1 0 -0 1 -.00000023841859 79.377)" font-size="4.9813" font-family="CMR5"><tspan y="-37.869" x="6.555">1</tspan></text>
<path transform="matrix(1,0,0,-1,29.559,68.034999)" stroke-width=".3985" stroke-linecap="butt" stroke-miterlimit="10" stroke-linejoin="miter" fill="none" stroke="#000000" d="M141.73404 28.3468H169.62258"/>
<path transform="matrix(1,0,0,-1,199.18158,39.688196)" stroke-width=".31879" stroke-linecap="round" stroke-linejoin="round" fill="none" stroke="#000000" d="M-1.19551 1.59401C-1.09587 .99626 0 .09961 .29886 0 0-.09961-1.09587-.99626-1.19551-1.59401"/>
<text xml:space="preserve" transform="matrix(1 0 -0 1 0 79.377)" font-size="4.9813" font-family="CMMI5" font-style="italic"><tspan y="-44.177" x="183.656">&#x03c1;</tspan></text>
<path transform="matrix(1,0,0,-1,233.654,42.394998)" d="M28.95221 8.75974C28.95221 9.86021 28.06012 10.75229 26.95966 10.75229 25.85918 10.75229 24.9671 9.86021 24.9671 8.75974 24.9671 7.65927 25.85918 6.76718 26.95966 6.76718 28.06012 6.76718 28.95221 7.65927 28.95221 8.75974ZM26.95966 8.75974"/>
<path transform="matrix(1,0,0,-1,233.654,42.394998)" stroke-width=".3985" stroke-linecap="butt" stroke-miterlimit="10" stroke-linejoin="miter" fill="none" stroke="#000000" d="M28.95221 8.75974C28.95221 9.86021 28.06012 10.75229 26.95966 10.75229 25.85918 10.75229 24.9671 9.86021 24.9671 8.75974 24.9671 7.65927 25.85918 6.76718 26.95966 6.76718 28.06012 6.76718 28.95221 7.65927 28.95221 8.75974ZM26.95966 8.75974"/>
<path transform="matrix(1,0,0,-1,233.654,42.394998)" stroke-width=".3985" stroke-linecap="butt" stroke-miterlimit="10" stroke-linejoin="miter" fill="none" stroke="#000000" d="M16.66179-22.93315 26.95966 8.75974"/>
<path transform="matrix(1,0,0,-1,233.654,42.394998)" stroke-width=".3985" stroke-linecap="butt" stroke-miterlimit="10" stroke-linejoin="miter" fill="none" stroke="#000000" d="M0 0 26.95966 8.75974"/>
<path transform="matrix(1,0,0,-1,233.654,42.394998)" d="M18.65434-22.93315C18.65434-21.83267 17.76225-20.9406 16.66179-20.9406 15.56131-20.9406 14.66924-21.83267 14.66924-22.93315 14.66924-24.03362 15.56131-24.9257 16.66179-24.9257 17.76225-24.9257 18.65434-24.03362 18.65434-22.93315ZM16.66179-22.93315"/>
<path transform="matrix(1,0,0,-1,233.654,42.394998)" stroke-width=".3985" stroke-linecap="butt" stroke-miterlimit="10" stroke-linejoin="miter" fill="none" stroke="#000000" d="M18.65434-22.93315C18.65434-21.83267 17.76225-20.9406 16.66179-20.9406 15.56131-20.9406 14.66924-21.83267 14.66924-22.93315 14.66924-24.03362 15.56131-24.9257 16.66179-24.9257 17.76225-24.9257 18.65434-24.03362 18.65434-22.93315ZM16.66179-22.93315"/>
<path transform="matrix(1,0,0,-1,233.654,42.394998)" stroke-width=".3985" stroke-linecap="butt" stroke-miterlimit="10" stroke-linejoin="miter" fill="none" stroke="#000000" d="M-16.66179-22.93315H16.66179"/>
<path transform="matrix(1,0,0,-1,233.654,42.394998)" stroke-width=".3985" stroke-linecap="butt" stroke-miterlimit="10" stroke-linejoin="miter" fill="none" stroke="#000000" d="M0 0 16.66179-22.93315"/>
<path transform="matrix(1,0,0,-1,233.654,42.394998)" d="M-14.66924-22.93315C-14.66924-21.83267-15.56131-20.9406-16.66179-20.9406-17.76225-20.9406-18.65434-21.83267-18.65434-22.93315-18.65434-24.03362-17.76225-24.9257-16.66179-24.9257-15.56131-24.9257-14.66924-24.03362-14.66924-22.93315ZM-16.66179-22.93315"/>
<path transform="matrix(1,0,0,-1,233.654,42.394998)" stroke-width=".3985" stroke-linecap="butt" stroke-miterlimit="10" stroke-linejoin="miter" fill="none" stroke="#000000" d="M-14.66924-22.93315C-14.66924-21.83267-15.56131-20.9406-16.66179-20.9406-17.76225-20.9406-18.65434-21.83267-18.65434-22.93315-18.65434-24.03362-17.76225-24.9257-16.66179-24.9257-15.56131-24.9257-14.66924-24.03362-14.66924-22.93315ZM-16.66179-22.93315"/>
<path transform="matrix(1,0,0,-1,233.654,42.394998)" stroke-width=".3985" stroke-linecap="butt" stroke-miterlimit="10" stroke-linejoin="miter" fill="none" stroke="#000000" d="M-26.95966 8.75974-16.66179-22.93315"/>
<path transform="matrix(1,0,0,-1,233.654,42.394998)" stroke-width=".3985" stroke-linecap="butt" stroke-miterlimit="10" stroke-linejoin="miter" fill="none" stroke="#000000" d="M0 0-16.66179-22.93315"/>
<path transform="matrix(1,0,0,-1,233.654,42.394998)" d="M-24.9671 8.75974C-24.9671 9.86021-25.85918 10.75229-26.95966 10.75229-28.06012 10.75229-28.95221 9.86021-28.95221 8.75974-28.95221 7.65927-28.06012 6.76718-26.95966 6.76718-25.85918 6.76718-24.9671 7.65927-24.9671 8.75974ZM-26.95966 8.75974"/>
<path transform="matrix(1,0,0,-1,233.654,42.394998)" stroke-width=".3985" stroke-linecap="butt" stroke-miterlimit="10" stroke-linejoin="miter" fill="none" stroke="#000000" d="M-24.9671 8.75974C-24.9671 9.86021-25.85918 10.75229-26.95966 10.75229-28.06012 10.75229-28.95221 9.86021-28.95221 8.75974-28.95221 7.65927-28.06012 6.76718-26.95966 6.76718-25.85918 6.76718-24.9671 7.65927-24.9671 8.75974ZM-26.95966 8.75974"/>
<path transform="matrix(1,0,0,-1,233.654,42.394998)" stroke-width=".3985" stroke-linecap="butt" stroke-miterlimit="10" stroke-linejoin="miter" fill="none" stroke="#000000" d="M0 28.3468-26.95966 8.75974"/>
<path transform="matrix(1,0,0,-1,233.654,42.394998)" stroke-width=".3985" stroke-linecap="butt" stroke-miterlimit="10" stroke-linejoin="miter" fill="none" stroke="#000000" d="M0 0-26.95966 8.75974"/>
<path transform="matrix(1,0,0,-1,233.654,42.394998)" d="M1.99255 28.3468C1.99255 29.44728 1.10046 30.33936 0 30.33936-1.10046 30.33936-1.99255 29.44728-1.99255 28.3468-1.99255 27.24634-1.10046 26.35425 0 26.35425 1.10046 26.35425 1.99255 27.24634 1.99255 28.3468ZM0 28.3468"/>
<path transform="matrix(1,0,0,-1,233.654,42.394998)" stroke-width=".3985" stroke-linecap="butt" stroke-miterlimit="10" stroke-linejoin="miter" fill="none" stroke="#000000" d="M1.99255 28.3468C1.99255 29.44728 1.10046 30.33936 0 30.33936-1.10046 30.33936-1.99255 29.44728-1.99255 28.3468-1.99255 27.24634-1.10046 26.35425 0 26.35425 1.10046 26.35425 1.99255 27.24634 1.99255 28.3468ZM0 28.3468"/>
<path transform="matrix(1,0,0,-1,233.654,42.394998)" stroke-width=".3985" stroke-linecap="butt" stroke-miterlimit="10" stroke-linejoin="miter" fill="none" stroke="#000000" d="M26.95966 8.75974 0 28.3468"/>
<path transform="matrix(1,0,0,-1,233.654,42.394998)" stroke-width=".3985" stroke-linecap="butt" stroke-miterlimit="10" stroke-linejoin="miter" fill="none" stroke="#000000" d="M0 0V28.3468"/>
<path transform="matrix(1,0,0,-1,233.654,42.394998)" d="M1.99255 0C1.99255 1.10046 1.10046 1.99255 0 1.99255-1.10046 1.99255-1.99255 1.10046-1.99255 0-1.99255-1.10046-1.10046-1.99255 0-1.99255 1.10046-1.99255 1.99255-1.10046 1.99255 0ZM0 0"/>
<path transform="matrix(1,0,0,-1,233.654,42.394998)" stroke-width=".3985" stroke-linecap="butt" stroke-miterlimit="10" stroke-linejoin="miter" fill="none" stroke="#000000" d="M1.99255 0C1.99255 1.10046 1.10046 1.99255 0 1.99255-1.10046 1.99255-1.99255 1.10046-1.99255 0-1.99255-1.10046-1.10046-1.99255 0-1.99255 1.10046-1.99255 1.99255-1.10046 1.99255 0ZM0 0"/>
<path transform="matrix(1,0,0,-1,233.654,42.394998)" stroke-width=".3985" stroke-linecap="butt" stroke-miterlimit="10" stroke-linejoin="miter" fill="none" stroke="#000000" d="M0 0V0"/>
<text xml:space="preserve" transform="matrix(1 0 -0 1 .000015258789 79.377)" font-size="4.9813" font-family="CMMI5" font-style="italic"><tspan y="-31.317" x="232.036">c</tspan></text>
<path transform="matrix(1,0,0,-1,233.654,42.394998)" stroke-width=".3985" stroke-linecap="butt" stroke-miterlimit="10" stroke-linejoin="miter" fill="none" stroke="#0000ff" d="M0 28.3468V28.3468"/>
<text fill="#0000ff" xml:space="preserve" transform="matrix(1 0 -0 1 0 79.377)" font-size="4.9813" font-family="CMR5"><tspan y="-68.848" x="231.959">1</tspan></text>
<path transform="matrix(1,0,0,-1,233.654,42.394998)" stroke-width=".3985" stroke-linecap="butt" stroke-miterlimit="10" stroke-linejoin="miter" fill="none" stroke="#ff0000" d="M26.95966 8.75974V8.75974"/>
<text fill="#ff0000" xml:space="preserve" transform="matrix(1 0 -0 1 0 79.377)" font-size="4.9813" font-family="CMR5"><tspan y="-44.136" x="264.133">2</tspan></text>
<path transform="matrix(1,0,0,-1,233.654,42.394998)" stroke-width=".3985" stroke-linecap="butt" stroke-miterlimit="10" stroke-linejoin="miter" fill="none" stroke="#008080" d="M16.66179-22.93315V-22.93315"/>
<text fill="#008080" xml:space="preserve" transform="matrix(1 0 -0 1 0 79.377)" font-size="4.9813" font-family="CMR5"><tspan y="-7.319" x="253.835">3</tspan></text>
<path transform="matrix(1,0,0,-1,233.654,42.394998)" stroke-width=".3985" stroke-linecap="butt" stroke-miterlimit="10" stroke-linejoin="miter" fill="none" stroke="#ff8000" d="M-16.66179-22.93315V-22.93315"/>
<text fill="#ff8000" xml:space="preserve" transform="matrix(1 0 -0 1 0 79.377)" font-size="4.9813" font-family="CMR5"><tspan y="-7.319" x="210.082">4</tspan></text>
<path transform="matrix(1,0,0,-1,233.654,42.394998)" stroke-width=".3985" stroke-linecap="butt" stroke-miterlimit="10" stroke-linejoin="miter" fill="none" stroke="#800080" d="M-26.95966 8.75974V8.75974"/>
<text fill="#800080" xml:space="preserve" transform="matrix(1 0 -0 1 .000015258789 79.377)" font-size="4.9813" font-family="CMR5"><tspan y="-44.136" x="199.784">5</tspan></text>
<path transform="matrix(1,0,0,-1,233.654,42.394998)" d="M1.99255 28.3468C1.99255 29.44728 1.10046 30.33936 0 30.33936-1.10046 30.33936-1.99255 29.44728-1.99255 28.3468-1.99255 27.24634-1.10046 26.35425 0 26.35425 1.10046 26.35425 1.99255 27.24634 1.99255 28.3468ZM0 28.3468" fill="#0000ff"/>
<path transform="matrix(1,0,0,-1,233.654,42.394998)" stroke-width=".3985" stroke-linecap="butt" stroke-miterlimit="10" stroke-linejoin="miter" fill="none" stroke="#0000ff" d="M1.99255 28.3468C1.99255 29.44728 1.10046 30.33936 0 30.33936-1.10046 30.33936-1.99255 29.44728-1.99255 28.3468-1.99255 27.24634-1.10046 26.35425 0 26.35425 1.10046 26.35425 1.99255 27.24634 1.99255 28.3468ZM0 28.3468"/>
<path transform="matrix(1,0,0,-1,233.654,42.394998)" d="M28.95221 8.75974C28.95221 9.86021 28.06012 10.75229 26.95966 10.75229 25.85918 10.75229 24.9671 9.86021 24.9671 8.75974 24.9671 7.65927 25.85918 6.76718 26.95966 6.76718 28.06012 6.76718 28.95221 7.65927 28.95221 8.75974ZM26.95966 8.75974" fill="#ff0000"/>
<path transform="matrix(1,0,0,-1,233.654,42.394998)" stroke-width=".3985" stroke-linecap="butt" stroke-miterlimit="10" stroke-linejoin="miter" fill="none" stroke="#ff0000" d="M28.95221 8.75974C28.95221 9.86021 28.06012 10.75229 26.95966 10.75229 25.85918 10.75229 24.9671 9.86021 24.9671 8.75974 24.9671 7.65927 25.85918 6.76718 26.95966 6.76718 28.06012 6.76718 28.95221 7.65927 28.95221 8.75974ZM26.95966 8.75974"/>
<path transform="matrix(1,0,0,-1,233.654,42.394998)" d="M18.65434-22.93315C18.65434-21.83267 17.76225-20.9406 16.66179-20.9406 15.56131-20.9406 14.66924-21.83267 14.66924-22.93315 14.66924-24.03362 15.56131-24.9257 16.66179-24.9257 17.76225-24.9257 18.65434-24.03362 18.65434-22.93315ZM16.66179-22.93315" fill="#008080"/>
<path transform="matrix(1,0,0,-1,233.654,42.394998)" stroke-width=".3985" stroke-linecap="butt" stroke-miterlimit="10" stroke-linejoin="miter" fill="none" stroke="#008080" d="M18.65434-22.93315C18.65434-21.83267 17.76225-20.9406 16.66179-20.9406 15.56131-20.9406 14.66924-21.83267 14.66924-22.93315 14.66924-24.03362 15.56131-24.9257 16.66179-24.9257 17.76225-24.9257 18.65434-24.03362 18.65434-22.93315ZM16.66179-22.93315"/>
<path transform="matrix(1,0,0,-1,233.654,42.394998)" d="M-14.66924-22.93315C-14.66924-21.83267-15.56131-20.9406-16.66179-20.9406-17.76225-20.9406-18.65434-21.83267-18.65434-22.93315-18.65434-24.03362-17.76225-24.9257-16.66179-24.9257-15.56131-24.9257-14.66924-24.03362-14.66924-22.93315ZM-16.66179-22.93315" fill="#ff8000"/>
<path transform="matrix(1,0,0,-1,233.654,42.394998)" stroke-width=".3985" stroke-linecap="butt" stroke-miterlimit="10" stroke-linejoin="miter" fill="none" stroke="#ff8000" d="M-14.66924-22.93315C-14.66924-21.83267-15.56131-20.9406-16.66179-20.9406-17.76225-20.9406-18.65434-21.83267-18.65434-22.93315-18.65434-24.03362-17.76225-24.9257-16.66179-24.9257-15.56131-24.9257-14.66924-24.03362-14.66924-22.93315ZM-16.66179-22.93315"/>
<path transform="matrix(1,0,0,-1,233.654,42.394998)" d="M-24.9671 8.75974C-24.9671 9.86021-25.85918 10.75229-26.95966 10.75229-28.06012 10.75229-28.95221 9.86021-28.95221 8.75974-28.95221 7.65927-28.06012 6.76718-26.95966 6.76718-25.85918 6.76718-24.9671 7.65927-24.9671 8.75974ZM-26.95966 8.75974" fill="#800080"/>
<path transform="matrix(1,0,0,-1,233.654,42.394998)" stroke-width=".3985" stroke-linecap="butt" stroke-miterlimit="10" stroke-linejoin="miter" fill="none" stroke="#800080" d="M-24.9671 8.75974C-24.9671 9.86021-25.85918 10.75229-26.95966 10.75229-28.06012 10.75229-28.95221 9.86021-28.95221 8.75974-28.95221 7.65927-28.06012 6.76718-26.95966 6.76718-25.85918 6.76718-24.9671 7.65927-24.9671 8.75974ZM-26.95966 8.75974"/>
</svg>
